<?xml version="1.0" encoding="UTF-8" standalone="no"?><svg xmlns="http://www.w3.org/2000/svg" xmlns:xlink="http://www.w3.org/1999/xlink" contentStyleType="text/css" height="244px" preserveAspectRatio="none" style="width:1302px;height:244px;background:#FFFFFF;" version="1.1" viewBox="0 0 1302 244" width="1302px" zoomAndPan="magnify"><defs/><g><!--entity LDAP--><g id="elem_LDAP"><path d="M1229,192.5 C1229,182.5 1257,182.5 1257,182.5 C1257,182.5 1285,182.5 1285,192.5 L1285,217.7969 C1285,227.7969 1257,227.7969 1257,227.7969 C1257,227.7969 1229,227.7969 1229,217.7969 L1229,192.5 " fill="#F1F1F1" style="stroke:#181818;stroke-width:0.5;"/><path d="M1229,192.5 C1229,202.5 1257,202.5 1257,202.5 C1257,202.5 1285,202.5 1285,192.5 " fill="none" style="stroke:#181818;stroke-width:0.5;"/><text fill="#000000" font-family="sans-serif" font-size="14" lengthAdjust="spacing" textLength="36" x="1239" y="219.4951">LDAP</text></g><g id="elem_secret_openldap_simple_bind"><rect fill="#F1F1F1" height="60.8906" style="stroke:#181818;stroke-width:0.5;" width="305" x="308.5" y="175"/><text fill="#000000" font-family="sans-serif" font-size="14" lengthAdjust="spacing" textLength="199" x="361.5" y="189.9951">Secret openldap-simple-bind</text><line style="stroke:#181818;stroke-width:1.0;" x1="308.5" x2="613.5" y1="195.2969" y2="195.2969"/><text fill="#000000" font-family="sans-serif" font-size="14" lengthAdjust="spacing" textLength="31" x="331.5" y="210.292">user</text><text fill="#000000" font-family="sans-serif" font-size="14" lengthAdjust="spacing" textLength="218" x="390.5" y="210.292">cn=admin,dc=example,dc=org</text><line style="stroke:#181818;stroke-width:1.0;" x1="385.5" x2="385.5" y1="195.2969" y2="215.5938"/><line style="stroke:#181818;stroke-width:1.0;" x1="308.5" x2="613.5" y1="215.5938" y2="215.5938"/><text fill="#000000" font-family="sans-serif" font-size="14" lengthAdjust="spacing" textLength="67" x="313.5" y="230.5889">password</text><text fill="#000000" font-family="sans-serif" font-size="14" lengthAdjust="spacing" textLength="42" x="390.5" y="230.5889">admin</text><line style="stroke:#181818;stroke-width:1.0;" x1="385.5" x2="385.5" y1="215.5938" y2="235.8906"/></g><g id="elem_secret_openldap_simple_ca"><rect fill="#F1F1F1" height="40.5938" style="stroke:#181818;stroke-width:0.5;" width="234" x="952" y="185"/><text fill="#000000" font-family="sans-serif" font-size="14" lengthAdjust="spacing" textLength="185" x="976.5" y="199.9951">Secret openldap-simple-ca</text><line style="stroke:#181818;stroke-width:1.0;" x1="952" x2="1186" y1="205.2969" y2="205.2969"/><text fill="#000000" font-family="sans-serif" font-size="14" lengthAdjust="spacing" textLength="45" x="957" y="220.292">caCert</text><text fill="#000000" font-family="sans-serif" font-size="14" lengthAdjust="spacing" textLength="169" x="1012" y="220.292">&lt;ca certificate content&gt;</text><line style="stroke:#181818;stroke-width:1.0;" x1="1007" x2="1007" y1="205.2969" y2="225.5938"/></g><g id="elem_secret_class_openldap_simple_bind"><rect fill="#F1F1F1" height="40.5938" style="stroke:#181818;stroke-width:0.5;" width="250" x="7" y="185"/><text fill="#000000" font-family="sans-serif" font-size="14" lengthAdjust="spacing" textLength="236" x="14" y="199.9951">SecretClass openldap-simple-bind</text><line style="stroke:#181818;stroke-width:1.0;" x1="7" x2="257" y1="205.2969" y2="205.2969"/><text fill="#000000" font-family="sans-serif" font-size="14" lengthAdjust="spacing" textLength="73" x="95.5" y="220.292">k8sSearch</text></g><g id="elem_secret_class_openldap_simple_ca"><rect fill="#F1F1F1" height="40.5938" style="stroke:#181818;stroke-width:0.5;" width="236" x="665" y="185"/><text fill="#000000" font-family="sans-serif" font-size="14" lengthAdjust="spacing" textLength="222" x="672" y="199.9951">SecretClass openldap-simple-ca</text><line style="stroke:#181818;stroke-width:1.0;" x1="665" x2="901" y1="205.2969" y2="205.2969"/><text fill="#000000" font-family="sans-serif" font-size="14" lengthAdjust="spacing" textLength="73" x="746.5" y="220.292">k8sSearch</text></g><g id="elem_authentication_class_openldap_simple"><rect fill="#F1F1F1" height="101.4844" style="stroke:#181818;stroke-width:0.5;" width="371" x="596.5" y="7"/><text fill="#000000" font-family="sans-serif" font-size="14" lengthAdjust="spacing" textLength="256" x="654" y="21.9951">AuthenticationClass openldap-simple</text><line style="stroke:#181818;stroke-width:1.0;" x1="596.5" x2="967.5" y1="27.2969" y2="27.2969"/><text fill="#000000" font-family="sans-serif" font-size="14" lengthAdjust="spacing" textLength="61" x="751.5" y="42.292">ldapHost</text><line style="stroke:#181818;stroke-width:1.0;" x1="596.5" x2="967.5" y1="47.5938" y2="47.5938"/><text fill="#000000" font-family="sans-serif" font-size="14" lengthAdjust="spacing" textLength="135" x="714.5" y="62.5889">tlsServerVerification</text><line style="stroke:#181818;stroke-width:1.0;" x1="596.5" x2="967.5" y1="67.8906" y2="67.8906"/><text fill="#000000" font-family="sans-serif" font-size="14" lengthAdjust="spacing" textLength="108" x="728" y="82.8857">bindCredentials</text><line style="stroke:#181818;stroke-width:1.0;" x1="596.5" x2="967.5" y1="88.1875" y2="88.1875"/><text fill="#000000" font-family="sans-serif" font-size="14" lengthAdjust="spacing" textLength="112" x="613" y="103.1826">ldapSearchBase</text><text fill="#000000" font-family="sans-serif" font-size="14" lengthAdjust="spacing" textLength="216" x="746.5" y="103.1826">ou=users,dc=example,dc=org</text><line style="stroke:#181818;stroke-width:1.0;" x1="741.5" x2="741.5" y1="88.1875" y2="108.4844"/></g><!--link secret_class_openldap_simple_bind to secret_openldap_simple_bind--><g id="link_secret_class_openldap_simple_bind_secret_openldap_simple_bind"><path d="M258,215 C269.81,217.23 282.01,219 294.28,220.35 " fill="none" id="secret_class_openldap_simple_bind-to-secret_openldap_simple_bind" style="stroke:#181818;stroke-width:1.0;"/><polygon fill="#181818" points="299.2,220.86,290.6594,215.9551,294.2265,220.3455,289.8362,223.9127,299.2,220.86" style="stroke:#181818;stroke-width:1.0;"/></g><!--link secret_class_openldap_simple_ca to secret_openldap_simple_ca--><g id="link_secret_class_openldap_simple_ca_secret_openldap_simple_ca"><path d="M902,215 C913.68,217.69 925.81,219.7 937.96,221.11 " fill="none" id="secret_class_openldap_simple_ca-to-secret_openldap_simple_ca" style="stroke:#181818;stroke-width:1.0;"/><polygon fill="#181818" points="942.81,221.64,934.2974,216.6867,937.8395,221.0972,933.429,224.6394,942.81,221.64" style="stroke:#181818;stroke-width:1.0;"/></g><!--link authentication_class_openldap_simple to LDAP--><g id="link_authentication_class_openldap_simple_LDAP"><path d="M969,37 C1079.86,37 1186.28,130.75 1232.67,177.77 " fill="none" id="authentication_class_openldap_simple-to-LDAP" style="stroke:#181818;stroke-width:1.0;"/><polygon fill="#181818" points="1235.91,181.09,1232.4864,171.8554,1232.4177,177.5118,1226.7612,177.4431,1235.91,181.09" style="stroke:#181818;stroke-width:1.0;"/></g><!--link authentication_class_openldap_simple to secret_class_openldap_simple_ca--><g id="link_authentication_class_openldap_simple_secret_class_openldap_simple_ca"><path d="M969,57 C993,57 980.79,90.68 968,111 C947.73,143.21 912.58,164.69 878.33,178.8 " fill="none" id="authentication_class_openldap_simple-to-secret_class_openldap_simple_ca" style="stroke:#181818;stroke-width:1.0;"/><polygon fill="#181818" points="873.8,180.61,883.6419,180.9814,878.4424,178.753,880.6707,173.5536,873.8,180.61" style="stroke:#181818;stroke-width:1.0;"/></g><!--link authentication_class_openldap_simple to secret_class_openldap_simple_bind--><g id="link_authentication_class_openldap_simple_secret_class_openldap_simple_bind"><path d="M596,77 C443.74,77 273.02,141.41 187.36,178.49 " fill="none" id="authentication_class_openldap_simple-to-secret_class_openldap_simple_bind" style="stroke:#181818;stroke-width:1.0;"/><polygon fill="#181818" points="182.97,180.4,192.8186,180.4685,187.5531,178.4012,189.6205,173.1356,182.97,180.4" style="stroke:#181818;stroke-width:1.0;"/></g><!--SRC=[ZP8nQyCm48Lt_GgHiTHxXzgGkaE73eL0LtCvNHDHMHAIt0HA_djrSX98COuzYRidlU-U3unnXruVjTq9eI315YB9zzVrXn0zUBdQ40PAqdcoHe6lekwzeMghhLf9Y3AMVdVfTsE_uxxy5J9_GwGWwqQYhK7rsZughEa8BEEZ2xiYyn3ZmGN5qg8Jfta4X3a0XBCzGaiXyQlFkORvhByqGYA9pYQogVbdr9fCSdTWPDNSsDzFSKCGS2yVgcOkfaNsjyDEcrz7NcIDS3LU3scVW-1KjBEJ0CKTRdJJ56S4hhovc391HYZxnELaCbdueV19OVmD-Q5HSsUqSftZQWCfXW0J5rmi0L-0nb1UUCFpEhYXvjMC4_ju-WC0]--></g></svg>